{"title":"1000giri ~ Cowgirl Seira HD","uid":10800128,"size":421255252,"categoryP":"porn","categoryS":"hd___movies","magnet":"?xt=urn:btih:e71a6ff3181549cc637d0564458e7a42e3897a7c&amp;dn=1000giri+%7E+Cowgirl+Seira+HD&amp;tr=udp%3A%2F%2Ftracker.openbittorrent.com%3A80&amp;tr=udp%3A%2F%2Fopen.demonii.com%3A1337&amp;tr=udp%3A%2F%2Ftracker.coppersurfer.tk%3A6969&amp;tr=udp%3A%2F%2Fexodus.desync.com%3A6969","seeders":0,"leechers":1,"uploader":"ThousandPeers","files":-1,"time":1408336437,"description":"File size                                : 401 MiB\nDuration                                 : 13mn 33s\nOverall bit rate mode                    : Constant\nOverall bit rate                         : 4 139 Kbps\nMaximum Overall bit rate                 : 4 226 Kbps\nEncoded date                             : UTC 2013-02-12 17:51:36.796\n\nVideo\nID                                       : 1\nFormat                                   : VC-1\nFormat profile                           : MP@HL\nCodec ID                                 : WMV3\nCodec ID/Info                            : Windows Media Video 9\nCodec ID/Hint                            : WMV3\nDescription of the codec                 : Windows Media Video 9 - Professional\nDuration                                 : 13mn 33s\nBit rate mode                            : Constant\nBit rate                                 : 4 000 Kbps\nWidth                                    : 1 280 pixels\nHeight                                   : 720 pixels\nDisplay aspect ratio                     : 16:9\nFrame rate                               : 29.970 fps\nBit depth                                : 8 bits\nScan type                                : Progressive\nCompression mode                         : Lossy\nBits/(Pixel*Frame)                       : 0.145\nStream size                              : 388 MiB (97%)\nLanguage                                 : Japanese\n\nAudio\nID                                       : 2\nFormat                                   : WMA\nFormat version                           : Version 2\nCodec ID                                 : 161\nCodec ID/Info                            : Windows Media Audio\nDescription of the codec                 : Windows Media Audio 9.2 - 192 kbps, 48 kHz, stereo 2-pass CBR\nDuration                                 : 13mn 33s\nBit rate mode                            : Constant\nBit rate                                 : 192 Kbps\nChannel(s)                               : 2 channels\nSampling rate                            : 48.0 KHz\nBit depth                                : 16 bits\nStream size                              : 18.6 MiB (5%)\nLanguage                                 : Japanese\n","torrent":{"xt":"urn:btih:e71a6ff3181549cc637d0564458e7a42e3897a7c","amp;dn":"1000giri+%7E+Cowgirl+Seira+HD","amp;tr":["udp%3A%2F%2Ftracker.openbittorrent.com%3A80","udp%3A%2F%2Fopen.demonii.com%3A1337","udp%3A%2F%2Ftracker.coppersurfer.tk%3A6969","udp%3A%2F%2Fexodus.desync.com%3A6969"],"infoHash":"e71a6ff3181549cc637d0564458e7a42e3897a7c","infoHashBuffer":{"type":"Buffer","data":[231,26,111,243,24,21,73,204,99,125,5,100,69,142,122,66,227,137,122,124]},"announce":[],"urlList":[]}}